<?xml version="1.0" standalone="no"?>
<!DOCTYPE svg PUBLIC "-//W3C//DTD SVG 20010904//EN"
 "http://www.w3.org/TR/2001/REC-SVG-20010904/DTD/svg10.dtd">
<svg version="1.0" xmlns="http://www.w3.org/2000/svg"
 width="216.000000pt" height="281.000000pt" viewBox="0 0 216.000000 281.000000"
 preserveAspectRatio="xMidYMid meet">
<metadata>
Created by potrace 1.10, written by Peter Selinger 2001-2011
</metadata>
<g transform="translate(0.000000,281.000000) scale(0.050000,-0.050000)"
fill="#000000" stroke="none">
<path d="M0 5569 c1 -32 23 -113 50 -179 28 -66 50 -126 50 -134 0 -8 40 -99
89 -203 49 -103 95 -213 103 -245 7 -32 20 -67 29 -78 8 -11 48 -105 89 -210
41 -104 95 -235 120 -290 25 -55 57 -131 71 -170 32 -89 59 -120 59 -69 0 21
-41 138 -92 259 -50 121 -112 274 -137 340 -45 119 -238 603 -272 680 -9 22
-41 103 -70 180 -64 167 -89 200 -89 119z"/>
<path d="M460 5346 c51 -152 103 -298 114 -326 12 -27 28 -81 36 -120 8 -38
28 -95 44 -126 15 -31 26 -81 24 -110 -11 -146 2 -235 30 -199 14 19 36 35 48
35 63 0 27 143 -191 770 -97 278 -126 341 -159 346 -37 6 -34 -14 54 -270z"/>
<path d="M500 5607 c0 -22 122 -396 133 -407 12 -11 5 264 -8 357 -9 57 -125
104 -125 50z"/>
<path d="M660 5335 c0 -157 9 -298 20 -315 13 -20 19 74 20 285 0 197 -8 315
-20 315 -12 0 -20 -108 -20 -285z"/>
<path d="M894 5575 c5 -25 17 -63 26 -85 9 -22 22 -53 27 -70 5 -16 11 22 11
85 2 100 -3 115 -36 115 -29 0 -36 -11 -28 -45z"/>
<path d="M992 5190 c2 -469 2 -471 76 -417 55 40 71 93 22 74 -16 -6 -31 -26
-31 -44 -2 -48 -36 34 -36 87 0 40 0 40 17 0 9 -23 11 68 5 208 -9 186 -6 245
12 234 15 -9 23 -87 23 -227 0 -116 6 -206 12 -199 7 7 11 107 9 223 -2 136 5
211 18 211 13 0 21 -71 21 -190 0 -104 7 -190 15 -190 8 0 12 90 9 200 -6 164
-12 200 -38 200 -23 0 -28 15 -21 63 7 48 1 64 -28 72 -25 7 -37 28 -37 67 0
33 -11 58 -25 58 -19 0 -25 -98 -23 -430z"/>
<path d="M1198 5555 c-2 -36 -2 -101 -2 -145 1 -44 2 -160 3 -258 1 -176 1
-178 38 -135 25 28 61 43 105 43 l68 -1 -87 -78 c-47 -43 -108 -94 -135 -114
-46 -35 -70 -83 -28 -57 11 7 20 -1 20 -17 0 -16 5 -44 12 -61 9 -23 0 -32
-30 -32 -23 0 -58 -8 -77 -18 -19 -9 -61 -25 -94 -35 -68 -20 -105 -111 -61
-154 40 -40 -35 -82 -92 -52 -56 30 -62 18 -27 -50 27 -51 26 -61 -5 -95 -38
-43 -42 -182 -6 -226 16 -19 13 -34 -9 -57 -33 -32 -26 -161 12 -206 30 -37
94 -45 119 -15 36 44 73 33 73 -21 0 -55 -117 -141 -148 -110 -9 9 -19 -33
-22 -94 -3 -95 1 -112 35 -121 28 -8 35 -19 23 -43 -19 -38 -17 -102 8 -203
21 -89 20 -84 37 -122 8 -18 17 -54 20 -80 4 -26 13 -63 21 -82 8 -19 9 -44 2
-55 -8 -12 0 -21 15 -21 59 0 77 -51 35 -99 -32 -36 -35 -52 -15 -82 18 -29
17 -44 -2 -63 -29 -29 -32 -208 -4 -226 12 -7 15 -21 9 -31 -6 -11 7 -19 30
-19 22 0 42 -11 43 -25 6 -94 25 -149 59 -172 21 -16 39 -48 39 -72 0 -46 54
-171 74 -171 19 0 -14 161 -42 206 -49 79 -78 410 -77 854 2 409 0 432 -39
474 -35 37 -37 50 -16 75 17 22 18 31 2 31 -16 0 -20 36 -13 115 32 346 129
505 309 505 81 0 159 32 199 81 29 36 59 42 248 45 133 3 212 12 207 24 -4 11
-17 18 -29 15 -12 -2 -17 8 -11 24 9 22 23 24 62 9 36 -13 60 -12 80 5 23 19
33 18 47 -4 13 -22 23 -23 40 -6 18 18 40 16 93 -6 38 -16 65 -21 59 -11 -6
10 21 19 60 20 55 2 68 -4 60 -27 -7 -16 -3 -29 8 -29 10 0 19 9 19 20 0 11
14 20 31 20 17 0 27 8 21 17 -6 9 1 17 14 19 13 1 48 8 77 15 41 10 55 5 60
-21 5 -25 30 -36 86 -40 44 -2 83 -15 87 -27 4 -13 20 -23 36 -23 15 0 28 -9
28 -20 0 -11 12 -20 27 -20 60 0 157 -202 167 -350 8 -113 18 -147 53 -175 31
-25 35 -34 13 -35 -93 -1 -92 -144 2 -323 21 -40 38 -89 38 -110 0 -21 14 -58
31 -83 17 -24 26 -52 20 -63 -6 -10 -3 -24 8 -30 10 -7 14 -25 8 -41 -6 -16 5
-75 24 -133 61 -183 39 -667 -30 -667 -9 0 -36 -23 -60 -50 l-43 -50 12 94
c10 79 5 101 -30 136 -41 41 -39 80 6 80 15 0 12 -9 -6 -22 -23 -16 -23 -19
-2 -14 15 5 30 32 33 61 5 41 -1 50 -26 40 -19 -7 -26 -4 -19 9 7 11 -7 41
-32 67 -24 26 -53 68 -64 95 l-20 47 -45 -51 c-25 -29 -34 -52 -22 -52 13 0
18 -6 11 -12 -15 -16 35 -68 65 -68 11 0 21 -8 21 -18 0 -10 25 -28 55 -39 51
-19 52 -21 13 -33 -59 -18 -45 -194 25 -301 21 -33 21 -49 0 -90 -14 -28 -22
-61 -18 -75 5 -13 -6 -29 -23 -36 -18 -7 -32 -25 -32 -40 0 -34 24 -36 56 -4
13 13 25 20 26 15 1 -5 4 -48 8 -96 12 -156 57 -134 100 49 31 132 -6 236 -46
128 -13 -35 -22 -40 -34 -20 -10 16 -4 35 17 50 18 13 26 31 18 39 -8 8 -2 11
14 8 18 -4 45 26 70 77 23 46 56 88 75 93 28 7 32 26 22 121 -11 105 -9 112
31 112 24 0 43 -9 43 -20 0 -40 6 -50 44 -77 21 -15 34 -40 28 -55 -6 -15 -2
-28 9 -28 62 0 56 250 -7 288 -29 17 -42 15 -62 -13 -46 -61 -86 -42 -100 46
-16 98 1 135 39 85 24 -31 28 -31 28 -4 1 17 -17 48 -39 68 -43 39 -52 108
-22 165 10 19 30 65 43 102 14 36 37 78 51 92 50 50 42 131 -13 131 -28 0 -40
11 -36 35 7 40 -17 85 -44 85 -11 0 -19 -13 -19 -30 0 -16 -9 -30 -19 -30 -11
0 -14 -16 -7 -35 12 -31 9 -32 -20 -8 -19 16 -34 43 -34 61 0 18 -12 51 -27
73 -36 52 -34 341 2 334 14 -3 25 13 25 35 0 22 8 40 18 40 10 0 23 14 29 30
15 38 4 38 -35 -1 -27 -27 -36 -26 -81 14 -56 48 -68 117 -21 117 22 0 26 15
17 60 -9 47 -5 60 21 60 29 0 28 6 -7 43 -26 28 -34 52 -22 66 12 14 12 34 0
52 -10 16 -19 21 -19 12 0 -10 -12 -8 -27 4 -15 13 -33 18 -40 13 -7 -6 -8 -4
-3 3 14 19 -51 87 -83 87 -15 0 -27 14 -27 30 0 17 -8 30 -18 30 -9 0 -22 19
-28 42 -10 37 -21 40 -93 28 -73 -12 -81 -10 -81 28 0 23 -9 42 -20 42 -11 0
-20 -22 -20 -49 0 -64 -35 -85 -44 -26 -5 37 -19 45 -75 46 -58 1 -73 11 -94
64 -14 34 -46 68 -71 76 -25 8 -57 29 -70 47 -23 29 -25 29 -25 -1 -1 -19 10
-39 24 -45 20 -10 20 -14 0 -24 -14 -6 -25 -20 -25 -31 0 -11 8 -14 19 -8 10
6 24 3 30 -7 28 -46 -35 -40 -71 6 -23 29 -51 52 -64 51 -13 0 -9 -9 10 -20
19 -11 30 -33 25 -50 -31 -101 -28 -98 -70 -53 -21 23 -39 54 -39 68 0 14 -13
51 -29 82 -16 31 -35 87 -42 125 -8 38 -25 69 -39 69 -35 0 -54 55 -24 68 13
7 -7 6 -46 0 -38 -7 -74 -13 -80 -13 -5 -1 -53 10 -105 24 -96 26 -145 61 -86
61 17 0 29 10 26 22 -3 13 16 26 41 30 28 5 41 0 34 -12 -7 -11 6 -20 29 -20
22 0 39 11 36 25 -7 37 180 26 223 -13 47 -43 84 -41 69 3 -19 52 -64 82 -108
70 -30 -7 -37 -2 -28 21 14 37 -144 95 -168 63 -7 -11 -33 -19 -58 -19 -25 0
-43 -9 -40 -20 3 -10 18 -19 33 -20 16 0 32 -13 37 -30 5 -19 2 -22 -8 -8 -26
34 -229 3 -298 -45 -74 -52 -183 -70 -198 -33 -12 33 100 106 164 106 24 0 56
18 70 40 14 24 46 40 77 40 29 0 64 14 78 30 14 17 37 30 52 30 31 0 33 12 8
70 -9 22 -18 28 -19 14 -3 -57 -41 3 -41 65 0 59 -6 66 -55 66 -53 0 -54 -1
-10 -21 25 -11 45 -30 45 -42 0 -21 -22 -26 -156 -37 -45 -4 -55 -13 -49 -45
6 -31 -13 -53 -75 -88 -53 -29 -79 -56 -72 -74 6 -16 -2 -28 -19 -28 -33 0
-40 71 -9 90 26 16 -12 92 -43 85 -12 -3 -27 8 -32 23 -7 20 1 25 30 17 48
-12 50 40 2 66 -65 37 -22 159 56 159 41 0 64 -8 57 -20 -8 -13 39 -21 124
-22 75 -1 156 -4 181 -6 51 -6 62 37 13 56 -50 19 -132 14 -118 -8 7 -12 -13
-20 -49 -20 -33 0 -61 9 -61 20 0 12 -77 20 -190 20 l-190 0 -2 -65z m284
-615 c18 0 44 -14 58 -30 15 -18 34 -24 48 -14 51 39 186 29 197 -15 13 -48
65 -55 82 -11 27 69 233 -11 233 -91 0 -22 -7 -37 -15 -34 -8 3 -17 -4 -20
-15 -3 -11 6 -20 20 -20 13 0 27 -18 31 -40 4 -29 1 -33 -12 -14 -14 21 -22
20 -41 -3 -19 -22 -16 -30 14 -38 46 -12 73 -95 30 -95 -16 0 -25 8 -19 17 6
9 -19 17 -54 18 -35 2 -82 6 -104 11 -22 5 -59 2 -82 -7 -23 -9 -53 -8 -68 1
-29 18 -80 5 -80 -20 0 -9 18 -12 40 -6 22 6 40 3 40 -7 0 -19 -95 -67 -134
-67 -14 0 -26 -12 -26 -27 0 -28 -81 -73 -131 -73 -16 0 -29 -9 -29 -20 0 -35
-50 -21 -76 22 -23 36 -21 42 15 52 22 6 41 19 41 30 0 10 11 12 23 4 16 -10
20 -4 12 17 -14 36 30 83 55 60 9 -8 10 -4 3 9 -15 26 -73 13 -73 -16 0 -10
-13 -18 -29 -18 -35 0 -169 -84 -170 -106 -1 -9 19 -10 44 -3 l45 14 -42 -38
c-23 -20 -66 -75 -95 -122 -58 -92 -133 -118 -133 -45 0 22 8 40 18 40 10 0
23 30 30 67 7 37 35 88 62 113 28 26 50 55 50 65 0 11 19 45 42 78 29 40 40
80 34 126 -5 50 -1 64 20 56 15 -6 46 -1 70 9 147 67 222 106 209 108 -28 5
-55 13 -60 17 -24 19 -95 16 -95 -4 0 -14 -26 -25 -60 -26 -33 0 -60 6 -60 15
0 9 9 16 19 16 11 0 14 14 7 32 -14 38 35 75 63 47 10 -10 34 -19 53 -19z
m-433 -491 c17 -18 31 -46 31 -63 0 -42 -87 13 -96 61 -9 42 24 42 65 2z m43
-1963 c-14 -143 -19 -157 -48 -138 -27 16 18 272 48 272 7 0 7 -60 0 -134z"/>
<path d="M1640 4700 c-10 -16 -25 -29 -34 -27 -26 4 -91 -48 -72 -58 9 -6 34
-6 56 0 22 5 106 14 186 19 121 9 145 16 140 43 -9 47 -252 67 -276 23z"/>
<path d="M1871 5585 c-6 -16 -10 -43 -9 -62 1 -20 5 -24 11 -8 6 14 21 25 34
25 14 0 24 17 24 37 0 43 -44 49 -60 8z"/>
<path d="M2818 5600 c-10 -78 -35 -107 -69 -80 -14 13 -22 36 -16 51 6 16 1
29 -11 29 -12 0 -22 -18 -22 -40 0 -22 -11 -40 -25 -40 -14 0 -47 -6 -73 -13
-31 -9 -44 -6 -35 8 33 54 -255 -8 -292 -63 -10 -15 -14 -14 -15 3 0 20 -9 20
-44 0 -72 -41 -104 -75 -72 -76 14 -1 6 -9 -18 -19 -52 -21 -150 18 -137 55 6
14 -3 25 -20 25 -20 0 -29 -23 -29 -78 l0 -79 145 -7 c204 -10 214 -6 201 76
l-11 68 321 0 c352 0 352 0 322 -110 -17 -59 -16 -79 5 -92 25 -16 9 -27 -29
-20 -10 2 -12 -6 -5 -17 7 -10 24 -15 39 -9 20 8 24 -4 17 -41 -8 -44 -20 -51
-87 -51 -43 0 -78 -9 -78 -20 0 -37 -44 -21 -54 20 -6 22 -20 40 -31 40 -25 0
1 -105 32 -124 12 -9 32 -15 43 -15 11 0 7 8 -10 19 -26 17 -25 19 5 20 20 0
39 -20 46 -48 8 -29 32 -53 61 -61 40 -10 48 -25 50 -86 0 -41 6 -62 12 -47 8
21 18 15 38 -20 27 -49 41 153 34 482 -1 61 -3 171 -4 245 l-2 135 -90 0 c-49
0 -91 -9 -92 -20z"/>
<path d="M3060 5511 l0 -109 84 4 85 4 7 -168 8 -168 -92 11 -92 10 0 -177 c0
-170 29 -226 67 -128 20 52 87 73 122 38 18 -18 67 -33 110 -35 42 -2 74 -8
70 -15 -25 -41 117 -98 244 -98 135 0 163 -21 42 -33 -243 -23 -276 -43 -194
-114 40 -34 46 -33 173 41 206 120 346 188 486 238 l130 46 6 94 c6 90 5 93
-44 83 -28 -5 -46 -2 -40 8 6 9 -1 17 -16 17 -19 1 -18 6 4 20 42 27 65 25 47
-5 -10 -17 -4 -16 19 2 20 16 34 56 34 95 l0 68 -182 -10 c-101 -6 -191 -15
-200 -21 -10 -6 -18 84 -18 201 l0 212 -85 -6 c-62 -4 -83 -14 -79 -35 16 -73
15 -213 -2 -236 -12 -16 -11 -25 4 -25 12 0 22 -13 22 -30 0 -16 10 -30 21
-30 12 0 16 -8 10 -18 -6 -10 11 -23 38 -30 26 -7 54 -30 61 -51 14 -46 73
-69 130 -51 25 8 40 4 40 -11 0 -14 19 -20 47 -15 39 8 46 1 44 -42 -2 -32
-17 -54 -37 -58 -19 -4 -29 -16 -22 -28 8 -13 -2 -15 -28 -7 -22 7 -46 3 -53
-8 -8 -12 -2 -21 11 -21 14 0 19 -6 12 -13 -7 -7 -25 -3 -39 8 -29 25 -155
-19 -155 -54 0 -12 -17 -38 -38 -59 -63 -63 -388 -60 -349 2 7 13 18 10 28 -6
9 -15 24 -20 32 -11 22 21 -30 50 -72 39 -21 -5 -63 19 -106 61 -40 38 -77 66
-83 61 -7 -4 -8 -2 -2 5 5 7 1 24 -10 38 -14 16 -12 31 7 47 23 18 31 13 41
-27 7 -28 22 -51 33 -51 13 0 14 13 3 35 -33 65 0 237 41 213 14 -8 9 3 -10
25 -41 47 -45 89 -11 123 19 19 16 24 -10 24 -20 0 -34 16 -34 39 0 21 -10 45
-22 52 -12 8 -35 44 -50 81 -26 61 -37 68 -108 68 l-80 0 0 -109z"/>
<path d="M4000 5591 c29 -15 92 -24 150 -21 55 4 116 7 135 8 19 1 35 11 35
22 0 12 -74 20 -185 19 -167 -1 -180 -3 -135 -28z"/>
<path d="M2374 5574 c-6 -16 8 -27 36 -29 25 -3 51 9 57 25 8 21 -2 30 -35 30
-26 0 -52 -12 -58 -26z"/>
<path d="M840 5560 c-4 -14 -14 -107 -29 -258 -7 -70 -22 -145 -33 -166 -11
-21 -17 -48 -14 -59 4 -11 20 12 35 51 16 40 36 72 46 72 10 0 12 -9 5 -20 -7
-11 -3 -20 9 -20 13 0 20 38 17 95 -3 52 2 106 10 118 8 13 1 37 -16 54 -22
22 -23 32 -5 38 19 6 19 19 1 57 -13 26 -25 44 -26 38z"/>
<path d="M4075 5504 c-19 -4 -35 -19 -35 -33 0 -35 66 -51 109 -26 20 11 66
15 103 9 53 -9 68 -5 68 19 0 25 -20 29 -100 24 -55 -4 -102 -2 -105 4 -3 6
-21 7 -40 3z"/>
<path d="M3060 5240 c0 -44 5 -80 10 -80 21 0 49 100 37 130 -22 57 -47 30
-47 -50z"/>
<path d="M9 5240 c0 -20 6 -33 13 -29 46 28 59 -110 19 -195 -42 -89 -42 -90
-4 -178 21 -50 39 -141 40 -208 2 -88 12 -127 37 -145 38 -28 57 -236 24 -256
-20 -13 -19 -16 -26 116 -3 52 -10 100 -17 107 -15 15 2 -1031 17 -1055 6 -9
1 -17 -11 -17 -11 0 -21 19 -21 41 0 23 -8 36 -18 30 -9 -6 -24 10 -32 34
l-15 45 -9 -47 c-5 -25 3 -61 19 -80 82 -97 279 -472 259 -494 -8 -8 -3 -9 11
-1 14 8 25 5 25 -5 0 -11 12 -32 26 -47 14 -14 69 -87 121 -161 l96 -134 8
-286 c5 -157 13 -563 18 -903 12 -662 9 -639 58 -621 29 12 31 80 22 706 -9
600 -7 683 17 621 15 -39 42 -93 60 -119 19 -26 34 -71 34 -98 0 -50 -1 -50
-31 9 -41 78 -62 99 -62 61 0 -17 6 -31 14 -31 8 0 20 -31 27 -69 7 -37 24
-72 38 -76 18 -6 17 -17 -5 -43 -20 -25 -22 -39 -6 -49 24 -15 44 -343 20
-343 -8 0 -15 -14 -15 -31 0 -19 9 -26 23 -17 15 9 18 5 9 -9 -8 -13 -23 -18
-33 -12 -39 24 -17 -50 31 -107 77 -92 58 -124 -20 -37 -41 46 -70 65 -70 47
0 -16 14 -35 30 -41 17 -7 30 -35 30 -62 0 -28 11 -51 25 -51 19 -1 19 -5 -1
-17 -40 -25 -45 -128 -9 -168 40 -44 10 -46 -38 -2 -35 31 -37 31 -37 -8 0
-22 15 -46 33 -53 28 -11 26 -18 -13 -52 -54 -47 -75 -52 -40 -10 21 26 17 27
-36 9 -64 -23 -105 -119 -50 -119 55 0 23 -109 -34 -117 -27 -3 -59 -15 -69
-25 -10 -10 -44 -18 -75 -18 -31 0 -56 -7 -56 -16 0 -9 -20 -18 -45 -20 -93
-8 -147 -19 -205 -42 -33 -13 -71 -27 -85 -32 -14 -5 -25 -22 -25 -39 0 -18
12 -25 30 -18 26 10 26 5 0 -46 -34 -64 -40 -207 -10 -207 11 0 20 32 20 71 0
73 29 149 57 149 25 0 27 -161 2 -191 -17 -21 -14 -26 16 -24 28 2 38 17 36
54 -1 28 5 66 13 84 9 19 9 37 1 40 -8 4 5 28 29 54 l44 48 -9 -101 c-10 -99
16 -129 65 -75 9 10 3 10 -12 1 -19 -11 -23 -9 -14 6 14 23 72 11 72 -15 0 -8
27 -16 60 -17 64 -1 71 8 40 56 -13 20 -19 22 -20 5 0 -14 -18 -25 -40 -25
-22 0 -40 7 -40 15 0 20 118 96 140 90 10 -2 14 13 10 34 -5 27 1 35 21 28 18
-7 29 1 29 20 0 70 106 -7 127 -93 9 -37 23 -51 39 -41 15 9 14 2 -3 -19 -18
-22 -20 -34 -5 -34 12 0 22 -27 22 -60 0 -69 199 -88 200 -20 1 23 8 21 30 -8
87 -115 109 89 42 376 -46 192 -56 306 -32 351 24 46 15 50 -39 21 -29 -15
-37 -44 -39 -135 0 -63 -7 -140 -14 -170 -8 -34 -4 -55 9 -55 12 0 17 14 10
30 -6 17 -3 30 8 30 11 0 18 -20 16 -45 -2 -25 6 -58 18 -74 16 -21 15 -25 -4
-14 -16 10 -25 4 -25 -14 0 -17 18 -36 40 -43 84 -27 28 -180 -60 -167 -42 6
-56 30 -100 177 -88 288 -53 453 108 508 l76 26 -3 515 c-2 392 -10 536 -32
598 -17 49 -33 199 -39 363 -6 154 -15 318 -20 364 -5 46 0 90 11 97 11 7 15
31 8 54 -10 31 -6 38 16 30 22 -9 28 -2 21 26 -6 21 -21 36 -33 33 -13 -2 -24
19 -25 46 -1 28 -4 79 -5 115 -2 43 -13 65 -33 65 -22 0 -25 -11 -11 -48 14
-37 12 -51 -10 -60 -37 -14 -41 88 -5 124 18 18 18 24 0 24 -15 0 -19 20 -11
58 8 44 1 68 -31 95 -25 22 -42 60 -42 96 -1 43 -6 53 -18 33 -11 -17 -4 -68
19 -136 43 -124 34 -255 -12 -191 -16 21 -12 -5 9 -70 30 -89 35 -160 29 -465
-4 -198 0 -360 8 -360 30 0 144 -290 145 -366 0 -37 -44 16 -120 143 -65 110
-80 154 -80 235 0 55 -8 109 -18 119 -21 21 -39 809 -19 809 27 0 29 122 3
183 -22 51 -22 67 -2 80 21 12 21 20 1 40 -36 36 -31 78 7 63 27 -10 29 -5 11
28 -11 22 -16 59 -10 83 8 29 1 47 -22 55 -29 12 -26 21 22 71 30 31 44 57 31
57 -13 0 -24 -11 -25 -25 -1 -23 -137 243 -239 465 -60 131 -92 181 -106 167
-7 -7 -22 12 -33 42 -26 67 -27 112 -2 72 10 -17 23 -25 29 -20 16 16 -10 99
-30 99 -10 0 -23 36 -30 80 -7 44 -20 80 -28 80 -8 0 -15 23 -15 52 0 28 -17
75 -38 105 -37 52 -49 77 -115 227 -38 86 -63 109 -63 56z m390 -1190 c26 -66
56 -130 65 -143 10 -13 11 -28 2 -33 -9 -6 -51 63 -93 153 -43 90 -86 179 -96
199 -10 20 -12 45 -5 58 15 24 52 -44 127 -234z m-199 116 c0 -14 9 -26 20
-26 11 0 20 -15 20 -33 0 -29 135 -322 160 -347 66 -66 106 -573 81 -1029 -1
-29 -44 37 -141 219 -47 88 -98 178 -112 200 -24 36 -40 340 -47 845 -1 79 -8
105 -31 105 -18 0 -30 18 -30 46 0 32 12 45 40 45 22 0 40 -11 40 -25z m376
-431 c13 -30 18 -55 12 -55 -27 0 -68 61 -68 103 0 51 21 33 56 -48z m-39
-530 c-4 -218 -12 -192 -22 70 -3 80 2 145 10 145 8 0 13 -97 12 -215z m285
-374 c10 -10 18 -86 18 -168 0 -239 -13 -185 -49 197 -4 50 -4 68 2 40 6 -27
19 -59 29 -69z m-264 -131 c1 -65 -4 -82 -18 -60 -11 17 -19 75 -18 130 1 128
35 64 36 -70z"/>
<path d="M2535 5216 c-33 -34 -32 -36 40 -34 146 4 185 27 84 49 -76 17 -94
15 -124 -15z"/>
<path d="M894 5165 c-8 -36 -20 -92 -26 -125 -7 -33 -21 -60 -31 -60 -11 0
-13 -10 -5 -23 8 -14 5 -18 -8 -10 -15 10 -13 35 8 86 17 39 25 76 19 82 -6 7
-11 1 -11 -13 0 -13 -10 -18 -23 -10 -16 10 -19 3 -10 -21 9 -23 1 -45 -21
-61 -32 -24 -32 -28 2 -79 39 -60 46 -141 22 -256 -12 -60 -9 -75 15 -75 37 0
55 82 55 254 0 70 10 167 22 215 12 48 18 104 14 124 -6 26 -13 17 -22 -28z"/>
<path d="M2290 5185 c-45 -25 -52 -35 -27 -40 19 -4 48 -39 67 -77 18 -39 46
-75 62 -81 15 -6 28 -23 28 -37 0 -14 13 -31 30 -37 19 -8 27 -32 22 -73 -8
-68 33 -75 45 -8 16 83 47 94 98 34 32 -37 51 -48 58 -31 6 14 19 20 29 14 10
-6 18 3 18 21 0 18 -8 27 -19 21 -10 -7 -15 9 -10 36 6 31 -2 53 -21 60 -16 7
-30 25 -30 41 0 16 -28 35 -65 43 -70 15 -154 83 -155 124 0 34 -58 30 -130
-10z"/>
<path d="M500 4782 c8 -18 27 -57 41 -87 14 -30 29 -51 34 -47 5 5 -1 27 -13
49 -12 22 -22 57 -22 78 0 21 -13 38 -28 38 -19 0 -23 -10 -12 -31z"/>
<path d="M4173 4756 c-141 -49 -125 -79 32 -62 104 10 115 16 115 59 0 55 3
55 -147 3z"/>
<path d="M2 4675 c-1 -63 5 -115 14 -115 8 0 12 38 8 85 -10 140 -19 152 -22
30z"/>
<path d="M3065 4696 c-49 -24 -57 -46 -24 -67 12 -7 42 5 65 26 24 22 58 45
74 51 18 6 9 11 -20 11 -27 0 -70 -9 -95 -21z"/>
<path d="M2904 4678 c-26 -10 -41 -26 -35 -37 7 -11 26 -14 42 -8 16 6 42 1
57 -12 35 -28 56 0 31 40 -10 16 -19 20 -19 9 0 -11 -7 -10 -15 2 -10 15 -31
17 -61 6z"/>
<path d="M3305 4664 c-47 -3 -85 -15 -85 -26 0 -12 -27 -43 -60 -71 -33 -28
-60 -61 -60 -74 1 -15 6 -15 17 3 9 14 30 20 48 13 20 -8 36 2 44 28 11 36 68
68 181 103 59 18 12 31 -85 24z"/>
<path d="M3964 4657 c4 -15 -9 -26 -29 -24 -19 1 -30 -5 -25 -14 6 -8 -17 -22
-50 -29 -33 -7 -60 -21 -60 -30 0 -9 -34 -37 -75 -62 -41 -25 -81 -55 -88 -66
-21 -29 68 -174 100 -162 14 5 44 10 66 10 31 0 37 9 27 40 -7 23 -1 51 15 65
104 95 134 117 172 126 24 5 63 14 88 20 25 7 83 17 130 23 73 10 85 18 85 59
0 45 -6 47 -148 47 -82 0 -163 6 -181 12 -21 9 -31 3 -27 -15z"/>
<path d="M3352 4510 c-26 -28 -57 -50 -69 -50 -13 0 -23 -9 -23 -20 0 -28 107
-25 136 4 19 19 24 16 24 -10 0 -19 -9 -34 -20 -34 -11 0 -20 -12 -20 -27 0
-32 64 -36 85 -5 9 14 15 9 17 -13 6 -68 8 -75 28 -76 11 -1 23 11 26 27 9 45
-33 134 -64 134 -20 0 -27 15 -21 48 13 70 -43 83 -99 22z"/>
<path d="M3877 4282 c20 -12 10 -22 -35 -38 -34 -12 -62 -26 -62 -31 0 -20
437 -14 450 7 9 14 -13 17 -68 8 -99 -16 -204 6 -161 33 18 11 20 19 5 19 -13
0 -29 -9 -36 -20 -7 -11 -21 -20 -32 -20 -11 0 -15 8 -9 18 6 10 -3 23 -21 30
-45 17 -62 14 -31 -6z"/>
<path d="M3700 4101 c0 -23 -9 -41 -20 -41 -11 0 -18 -22 -16 -49 5 -50 36
-50 36 0 0 19 23 30 65 32 148 6 174 9 189 26 9 10 4 10 -12 1 -19 -11 -23 -9
-14 6 13 22 62 13 106 -20 13 -11 53 -15 90 -11 l66 7 -50 23 c-42 19 -31 21
68 11 82 -8 114 -6 105 9 -8 13 -95 22 -218 22 -113 1 -248 6 -300 13 -86 10
-95 8 -95 -29z"/>
<path d="M2188 4070 c4 -11 17 -18 30 -15 20 5 31 -21 24 -60 -1 -8 13 -15 30
-15 27 0 28 5 8 30 -13 16 -20 41 -15 55 6 16 -8 25 -38 25 -26 0 -44 -9 -39
-20z"/>
<path d="M2610 4080 c-7 -11 -2 -20 10 -20 14 0 21 -28 17 -70 -8 -94 67 -158
104 -88 13 25 15 38 3 30 -12 -7 -27 16 -35 53 -21 98 -69 144 -99 95z"/>
<path d="M3448 4063 c6 -10 -10 -13 -35 -8 -71 13 -58 -46 24 -119 70 -61 115
-49 61 16 -21 25 -21 34 0 47 33 20 32 42 -1 63 -35 22 -62 23 -49 1z"/>
<path d="M2478 4006 c-19 -22 -20 -29 -3 -19 14 9 25 6 25 -6 0 -11 14 -21 30
-21 37 0 39 28 3 58 -21 17 -34 15 -55 -12z"/>
<path d="M3716 3955 c-71 -94 -78 -126 -44 -194 28 -55 28 -64 -1 -92 -38 -39
-39 -51 -2 -100 39 -52 39 -142 0 -157 -22 -8 -29 -31 -24 -76 12 -106 50 -87
75 38 12 64 26 127 31 141 4 14 -7 25 -25 25 -29 0 -29 4 -2 35 17 20 28 68
26 110 -2 56 5 75 28 75 24 1 26 5 7 17 -17 10 -22 46 -16 104 5 49 9 95 10
103 0 7 21 17 46 22 40 8 39 9 -8 11 -37 2 -66 -15 -101 -62z"/>
<path d="M1487 3910 c-9 -23 -17 -26 -27 -10 -10 16 -18 11 -24 -14 -7 -26 5
-45 37 -60 26 -12 42 -14 36 -4 -6 10 2 18 18 18 19 0 26 13 19 40 -15 55 -44
70 -59 30z"/>
<path d="M1620 3820 c-26 -17 -25 -19 5 -20 19 0 33 -11 30 -25 -3 -14 12 -25
33 -25 24 0 41 17 45 45 7 49 -54 63 -113 25z"/>
<path d="M3386 3753 c-64 -75 -74 -233 -10 -169 19 19 24 16 24 -11 0 -27 10
-32 40 -23 23 7 40 4 40 -9 0 -43 36 -19 45 31 9 44 4 50 -33 40 -30 -7 -51 2
-69 31 -14 23 -16 35 -4 28 12 -8 40 -8 62 -1 48 16 47 100 -1 100 -16 0 -28
-12 -25 -26 4 -15 -4 -21 -16 -13 -12 7 -17 26 -11 41 15 40 5 35 -42 -19z"/>
<path d="M2907 3713 c11 -30 6 -36 -25 -28 -34 9 -36 3 -21 -50 23 -80 39 -93
39 -32 0 27 11 60 24 73 19 19 18 30 -3 49 -22 20 -24 18 -14 -12z"/>
<path d="M1358 3680 c-1 -5 -4 -33 -7 -62 -2 -28 -11 -62 -19 -75 -8 -12 -4
-23 9 -23 13 0 18 -13 12 -29 -6 -17 -4 -34 5 -40 9 -5 14 -33 11 -61 -3 -29
3 -45 14 -38 11 7 15 24 9 39 -6 15 -2 33 9 40 12 7 12 25 -1 49 -14 26 -13
42 3 52 13 8 18 6 11 -5 -6 -10 7 -30 29 -44 23 -15 35 -16 28 -4 -8 12 2 21
23 21 30 1 31 4 6 20 -16 11 -21 20 -10 20 11 1 4 10 -15 22 -20 11 -31 28
-25 37 5 10 -9 12 -33 6 -25 -7 -38 -3 -31 8 6 10 3 32 -7 48 -10 16 -19 25
-21 19z"/>
<path d="M2886 3314 c12 -31 5 -34 -51 -26 -255 39 -311 36 -347 -19 l-35 -53
-27 52 c-32 62 -77 68 -92 12 -6 -23 -27 -40 -51 -40 -22 0 -46 -9 -53 -20 -7
-11 -3 -20 9 -20 11 0 21 -22 21 -49 0 -30 17 -59 43 -72 30 -17 35 -28 18
-38 -13 -9 -24 -21 -23 -28 4 -45 -28 -138 -51 -147 -15 -6 -27 -20 -27 -32 0
-15 8 -14 24 2 13 13 33 24 44 24 12 0 10 -10 -3 -23 -15 -15 -19 -66 -11
-150 9 -92 5 -127 -12 -127 -14 0 -19 9 -12 20 7 11 3 20 -9 20 -28 0 -27 -26
4 -57 20 -20 19 -29 -5 -44 -25 -17 -20 -28 29 -68 85 -71 104 -183 39 -236
-36 -29 -79 -115 -58 -115 4 0 40 31 81 70 41 38 84 64 96 58 13 -6 7 2 -12
18 -43 35 -46 74 -5 74 17 0 30 11 30 25 1 17 7 15 20 -5 11 -16 20 -21 20
-10 1 22 39 -31 40 -55 0 -8 -16 -15 -35 -15 -30 -1 -30 -4 -5 -19 78 -50 90
160 13 231 -29 27 -53 59 -53 70 0 13 -13 13 -37 -1 -40 -21 -63 -10 -63 31 0
28 36 25 130 -11 48 -19 55 -19 35 2 -14 14 -25 41 -25 60 0 19 -11 42 -25 51
-14 9 -47 43 -75 76 -27 33 -37 49 -22 37 35 -31 82 -12 82 32 0 98 110 169
140 90 25 -64 64 -79 123 -46 26 14 53 24 60 22 7 -2 8 15 2 38 -8 31 -3 40
17 33 15 -6 26 -23 23 -39 -4 -21 14 -26 74 -20 95 9 145 53 82 73 -23 7 -41
21 -41 31 0 9 -25 17 -55 17 -30 0 -90 1 -133 2 -42 0 -96 -4 -120 -11 -38
-10 -39 -9 -8 16 29 24 21 27 -65 28 -54 1 -94 -5 -89 -14 5 -8 -2 -24 -16
-36 -40 -33 -67 34 -52 127 l12 80 4 -80 c3 -79 3 -79 37 -38 63 75 469 124
515 62 13 -19 31 -34 39 -34 21 0 71 -54 71 -76 0 -17 45 -44 74 -44 16 0 -13
137 -48 224 -25 63 -40 76 -87 76 -31 0 -72 16 -91 35 -34 33 -35 33 -22 -1z
m-195 -396 c21 -33 -26 -71 -53 -44 -23 23 -9 66 22 66 10 0 24 -10 31 -22z"/>
<path d="M0 3171 c0 -50 20 -104 60 -164 70 -103 72 -118 25 -146 -30 -17 -31
-23 -6 -40 26 -16 25 -21 -3 -32 -19 -7 -29 -23 -25 -36 5 -12 12 -66 15 -118
6 -102 -18 -131 -32 -40 -7 51 -8 50 -11 -10 -2 -36 5 -65 15 -65 10 0 21 -30
26 -68 6 -53 1 -65 -22 -56 -19 7 -23 3 -14 -13 9 -14 15 -83 14 -154 0 -73 8
-129 19 -129 12 0 16 -33 11 -80 -7 -55 -1 -84 18 -95 22 -12 30 -85 37 -305
4 -160 4 -236 -1 -170 -4 66 -18 129 -29 140 -15 14 -18 -43 -9 -190 7 -115
14 -298 17 -406 2 -127 12 -202 27 -210 13 -8 27 -31 31 -52 30 -162 47 2 45
453 -1 362 2 437 11 265 l13 -240 4 265 c2 146 -3 265 -11 265 -18 0 -19 19
-33 630 -5 264 -5 462 1 440 7 -22 29 -65 51 -95 21 -30 34 -56 27 -57 -14 -4
-49 -12 -60 -15 -4 -2 1 -32 12 -68 32 -103 34 -130 49 -820 10 -489 8 -655
-9 -655 -48 0 -23 -97 35 -139 32 -22 64 -41 70 -41 10 0 3 564 -16 1299 -4
126 -2 245 3 265 15 55 51 43 40 -14 -5 -27 -1 -50 10 -50 12 0 16 -80 10
-210 -6 -115 -4 -206 3 -201 7 4 8 -48 1 -116 -7 -67 -5 -139 5 -158 11 -23
10 -35 -4 -35 -14 0 -17 -24 -10 -65 7 -36 14 -219 17 -408 3 -252 12 -352 32
-375 53 -64 0 -57 -109 15 l-110 73 0 -195 c0 -195 0 -197 58 -231 72 -42 102
-43 102 -4 0 17 9 30 20 30 11 0 20 16 20 36 0 40 69 124 103 124 14 0 17 109
10 345 -6 190 -12 570 -12 846 l-1 501 -143 219 c-79 120 -200 313 -270 427
-123 203 -127 206 -127 133z m327 -612 c-26 -26 -77 29 -56 62 10 16 23 14 46
-9 22 -22 25 -38 10 -53z m91 -1874 c-3 -114 -3 -114 -19 -35 -23 110 -23 150
1 150 11 0 19 -50 18 -115z"/>
<path d="M3647 3212 c-16 -18 -17 -34 -4 -47 14 -14 13 -25 -2 -35 -17 -10
-17 -21 -1 -40 12 -14 26 -81 31 -149 5 -68 18 -141 30 -163 12 -22 16 -57 9
-78 -7 -21 -2 -57 10 -81 14 -26 16 -50 4 -65 -10 -13 -19 -58 -20 -99 0 -41
-1 -101 -2 -134 -3 -85 -118 -201 -199 -201 -62 0 -63 -1 -63 -99 0 -54 -9
-104 -20 -111 -12 -7 -16 -21 -9 -31 9 -15 -5 -70 -86 -319 -17 -53 -16 -144
3 -155 10 -6 12 -1 4 12 -8 13 -2 23 16 23 16 0 42 18 58 40 15 22 33 35 39
28 7 -6 22 7 34 30 12 22 58 50 102 62 45 12 116 53 158 91 42 38 89 69 105
69 16 0 83 50 148 112 65 61 103 106 84 100 -19 -5 -41 -1 -48 11 -17 27 29
69 92 85 39 10 36 5 -15 -21 -73 -39 -84 -62 -26 -57 47 3 115 61 131 111 7
22 25 31 48 25 60 -15 73 35 20 75 -43 33 -43 36 -8 33 32 -3 41 10 46 66 4
50 0 62 -14 41 -11 -16 -14 -38 -7 -48 7 -12 -3 -14 -23 -6 -19 7 -52 4 -74
-8 -21 -11 -37 -14 -36 -5 2 9 1 23 -2 31 -3 8 -7 22 -9 30 -20 72 -39 85
-123 85 -73 0 -85 -5 -74 -33 9 -23 5 -29 -11 -19 -13 8 -23 2 -23 -14 0 -68
-135 -53 -152 17 -33 130 70 204 151 110 25 -29 55 -38 113 -33 43 3 89 -3
103 -14 17 -12 35 -10 55 6 25 21 37 19 67 -7 48 -43 63 -42 63 7 0 30 -13 40
-51 40 -29 0 -69 9 -90 21 -27 14 -39 14 -39 0 0 -12 -31 -21 -70 -21 -38 0
-70 9 -70 19 0 11 -12 15 -27 9 -15 -6 -33 4 -40 22 -7 18 -21 28 -30 22 -10
-6 -16 9 -15 34 1 24 11 43 22 42 47 -5 110 -34 110 -50 0 -10 16 -19 35 -19
30 -2 29 -4 -4 -17 -36 -14 -35 -17 13 -26 35 -7 63 2 84 27 25 29 26 37 4 37
-35 0 -54 70 -27 97 14 14 8 18 -17 13 -21 -4 -45 -8 -54 -8 -9 -1 -10 -12 -2
-25 8 -14 5 -18 -7 -10 -12 7 -27 2 -33 -12 -6 -14 -7 -5 -1 18 8 31 0 46 -25
53 -33 9 -33 10 -1 12 19 1 35 12 35 24 0 12 -12 18 -26 12 -34 -13 -82 26
-91 74 -6 37 -47 89 -77 98 -8 2 -12 27 -9 56 3 28 -7 61 -22 73 -14 13 -25
48 -24 79 4 90 -72 138 -124 78z m495 -966 c16 -16 9 -29 -25 -47 -43 -23 -45
-23 -20 8 25 29 23 33 -15 33 -52 0 -53 -10 0 -77 l41 -53 -46 -30 c-25 -16
-76 -56 -112 -87 -44 -39 -76 -53 -100 -43 -64 25 -125 31 -125 12 0 -11 -16
-23 -35 -28 -19 -5 -3 -11 35 -14 39 -3 54 -9 35 -14 -19 -5 -35 -16 -35 -25
0 -10 -29 -16 -65 -14 -36 2 -65 -6 -65 -17 0 -11 8 -17 18 -14 10 3 7 -8 -7
-25 -31 -37 -38 -34 -46 20 -3 22 -13 50 -22 64 -10 17 -7 24 9 20 15 -3 31
21 37 55 6 33 20 60 31 60 38 1 73 34 63 60 -8 19 4 18 49 -4 35 -17 53 -39
45 -53 -7 -12 -6 -16 3 -8 9 8 27 6 40 -5 16 -13 23 -10 23 9 0 16 -6 25 -14
20 -8 -5 -20 5 -27 22 -6 17 -3 26 7 20 44 -27 126 29 116 79 -7 38 -1 50 27
50 19 0 42 10 50 23 9 15 5 18 -12 7 -16 -10 -21 -8 -14 3 16 26 129 20 156
-7z m-562 -526 c-14 -9 -20 -23 -15 -33 6 -9 -20 -19 -57 -22 -37 -3 -68 4
-68 15 0 11 23 20 51 20 27 0 55 13 62 30 6 16 20 24 31 17 13 -7 11 -18 -4
-27z"/>
<path d="M1650 3156 c-66 -8 -151 -19 -190 -23 -143 -16 -261 -190 -217 -321
15 -45 24 -93 21 -107 -3 -14 5 -25 18 -25 14 0 9 -17 -14 -42 -37 -42 -37
-42 2 -38 65 7 82 1 51 -19 -17 -10 -23 -25 -15 -33 8 -9 32 4 53 26 21 23 33
47 26 54 -6 7 10 12 36 12 36 0 42 5 23 24 -18 18 -32 15 -62 -12 -25 -23 -43
-27 -51 -13 -8 12 3 27 23 35 20 7 45 25 56 39 22 28 364 46 404 21 13 -8 29
-6 36 6 7 11 23 20 35 20 13 0 -7 -25 -44 -56 -63 -53 -78 -56 -202 -49 -91 6
-139 1 -149 -15 -26 -43 37 -62 160 -50 66 7 131 13 144 14 13 2 60 36 105 77
89 82 99 70 41 -51 -46 -94 -49 -123 -15 -136 18 -6 12 -33 -22 -100 -28 -55
-42 -106 -34 -130 14 -46 71 -76 71 -38 0 14 18 61 40 104 22 43 40 95 40 115
0 21 9 32 20 25 11 -7 34 -4 52 6 55 30 -8 53 -64 23 -26 -14 -54 -20 -61 -13
-16 16 32 134 56 134 9 0 15 40 12 90 -3 56 -14 90 -30 90 -14 0 -25 22 -25
49 0 27 -9 54 -20 61 -13 8 -12 27 2 54 19 36 18 40 -10 29 -24 -9 -32 -3 -28
20 3 18 -5 35 -19 38 -15 3 -16 1 -5 -4 29 -15 -15 -67 -56 -67 -47 0 -164
-46 -164 -64 0 -9 -21 -16 -48 -16 -61 0 -178 -49 -211 -89 -46 -55 -108 -40
-92 23 23 90 97 142 225 156 64 7 132 18 151 23 20 6 35 -1 35 -15 0 -15 13
-8 29 13 17 22 30 31 30 21 1 -26 81 50 81 77 0 41 -106 63 -230 47z m180
-316 c7 -11 30 -20 51 -20 22 0 39 -10 39 -22 0 -12 -11 -17 -25 -12 -14 5
-39 1 -56 -7 -42 -22 -88 9 -73 49 14 36 45 42 64 12z"/>
<path d="M3525 2910 c2 -22 -2 -50 -10 -62 -8 -13 4 -39 25 -58 22 -20 40 -47
40 -59 0 -13 14 -41 31 -62 38 -47 27 14 -21 121 -14 33 -36 83 -48 110 -17
39 -21 41 -17 10z"/>
<path d="M3123 2838 c-17 -28 -18 -50 -3 -78 35 -66 76 -49 74 29 -2 81 -36
104 -71 49z"/>
<path d="M2480 2820 c-25 -16 -23 -19 12 -20 23 0 41 -13 41 -30 0 -21 -13
-27 -41 -20 -23 5 -15 -3 18 -18 97 -43 390 -60 390 -22 0 16 -11 30 -25 30
-17 1 -16 7 4 19 17 10 23 26 15 34 -9 9 -33 5 -55 -9 -21 -13 -77 -24 -124
-24 -62 -1 -77 -6 -55 -20 42 -27 -6 -25 -67 2 -33 15 -45 34 -38 60 11 42
-25 50 -75 18z"/>
<path d="M3229 2703 c11 -34 7 -40 -19 -30 -27 10 -32 1 -26 -54 7 -78 49
-102 62 -35 5 25 10 -3 11 -62 2 -60 9 -103 16 -95 22 21 27 233 6 233 -10 0
-19 13 -19 29 0 16 -10 35 -22 42 -15 10 -18 0 -9 -28z"/>
<path d="M1300 2475 c0 -10 -13 -31 -30 -48 -16 -16 -29 -49 -28 -73 2 -41 3
-40 18 6 16 49 16 49 18 4 3 -67 42 -33 42 37 0 33 9 59 20 59 11 0 20 8 20
17 0 9 -13 16 -30 16 -16 0 -30 -8 -30 -18z"/>
<path d="M2620 2322 c0 -21 34 -66 75 -100 73 -59 67 -120 -9 -93 -14 5 -30 0
-37 -11 -8 -13 -23 -11 -43 5 -37 31 -205 23 -246 -12 -16 -14 -46 -31 -65
-37 -55 -20 -40 -132 19 -147 103 -26 9 -69 -112 -52 -69 11 -81 35 -24 50 52
14 33 102 -29 136 -26 14 -44 32 -38 40 12 19 -91 86 -107 70 -7 -7 -1 -21 14
-30 53 -33 -155 -89 -225 -61 -36 15 -37 18 -7 19 20 0 32 9 26 18 -6 9 0 49
12 90 13 40 17 78 11 85 -19 19 -115 -54 -115 -87 0 -17 -32 -79 -71 -138 -79
-118 -78 -138 4 -279 52 -89 60 -175 24 -262 -13 -31 -26 -68 -29 -83 -3 -15
-12 -33 -20 -40 -8 -7 -9 1 -3 19 6 17 3 44 -7 60 -13 21 -17 22 -18 2 0 -15
-9 -21 -19 -14 -11 6 -14 38 -8 71 8 38 0 76 -21 109 -18 27 -28 50 -22 50 6
0 1 19 -11 43 -19 34 -27 37 -40 15 -14 -22 -22 -23 -42 -3 -89 89 -45 -60 68
-230 31 -47 52 -85 46 -85 -6 0 4 -18 23 -39 18 -21 40 -34 49 -29 9 6 13 -2
8 -16 -4 -14 -13 -51 -20 -81 -8 -40 -24 -55 -56 -56 -86 -1 -366 -294 -325
-339 19 -21 30 -52 23 -69 -6 -17 -3 -31 8 -31 17 0 28 43 22 84 -2 8 15 24
37 36 37 20 40 15 40 -54 0 -116 -43 -251 -59 -187 -23 91 -56 68 -41 -29 11
-70 7 -95 -15 -108 -25 -14 -25 -18 1 -28 32 -12 26 -81 -11 -128 -10 -13 -12
-34 -5 -47 8 -12 -5 -35 -28 -52 -23 -16 -42 -42 -42 -58 0 -16 -11 -29 -23
-29 -13 0 -18 -6 -11 -13 8 -7 2 -27 -11 -43 -20 -24 -20 -32 0 -39 17 -6 10
-21 -20 -46 l-45 -38 77 0 c59 -1 75 6 66 28 -22 59 59 128 96 81 32 -39 32
-39 27 10 -5 37 -17 49 -46 46 -22 -3 -29 0 -15 6 14 6 25 27 25 47 0 20 14
47 30 61 25 21 30 18 30 -15 0 -22 13 -71 29 -108 16 -37 30 -53 30 -37 0 17
-8 43 -18 59 -11 18 -11 35 -1 41 20 12 -35 223 -61 240 -9 6 -14 34 -11 62 7
61 256 395 268 359 5 -14 0 -31 -11 -38 -11 -7 -30 -47 -41 -89 -12 -41 -42
-94 -68 -116 -25 -23 -35 -35 -21 -28 28 14 35 -21 8 -38 -20 -13 -6 -112 16
-112 8 0 41 -27 73 -59 32 -33 78 -60 102 -60 68 -1 73 -35 6 -45 -124 -18
-286 152 -250 264 12 38 10 40 -26 18 -28 -18 -35 -35 -23 -57 54 -102 119
-273 119 -314 0 -53 77 -171 101 -156 8 5 10 45 4 89 -7 55 -3 80 14 80 13 0
18 9 11 20 -31 50 26 13 84 -55 55 -63 68 -70 86 -45 16 23 18 18 9 -22 -20
-89 31 -118 207 -117 128 1 147 5 115 25 -22 13 -63 47 -93 75 -29 28 -63 47
-75 43 -13 -4 -23 11 -23 34 0 24 -28 60 -70 88 -38 26 -65 53 -58 59 6 6 -7
30 -29 52 -24 24 -45 80 -52 137 -7 53 -26 166 -42 251 -16 86 -29 184 -29
219 0 34 -12 77 -28 94 -38 45 -60 122 -33 122 11 0 21 -8 21 -18 0 -21 38
-18 75 5 24 15 33 3 27 -34 -2 -10 6 -29 18 -43 11 -14 15 -39 9 -55 -6 -17
-2 -37 10 -44 11 -7 21 -34 21 -59 0 -53 111 -160 144 -140 13 9 17 5 8 -9 -8
-13 -2 -23 14 -23 16 0 50 -21 76 -46 55 -53 165 -68 234 -31 35 19 55 20 83
2 42 -26 248 -12 311 21 22 12 66 24 99 28 32 3 73 20 91 36 18 17 43 30 54
30 12 0 26 19 32 41 6 23 30 47 53 53 22 6 41 23 41 39 0 16 14 34 31 40 17 7
27 24 21 39 -6 14 20 55 56 89 58 54 87 115 127 259 5 17 11 51 13 77 3 25 16
53 29 61 17 11 13 25 -15 50 -43 39 -102 -15 -102 -94 0 -67 -50 -23 -60 53
-5 41 -19 73 -30 71 -53 -10 -99 130 -94 289 5 162 -50 293 -122 293 -13 0
-46 32 -72 71 -28 41 -60 66 -75 61 -15 -6 -27 2 -27 19 0 16 -9 29 -20 29
-11 0 -20 -17 -20 -38z m111 -303 c19 -31 7 -37 -103 -52 -104 -14 -105 39 -2
59 78 15 91 14 105 -7z m129 -95 c-1 -41 4 -101 10 -134 21 -106 17 -253 -6
-268 -16 -10 -18 -33 -5 -78 14 -49 12 -64 -9 -64 -17 0 -22 -15 -15 -43 10
-38 5 -41 -42 -30 -33 9 -53 6 -53 -8 0 -12 -26 7 -58 42 -66 72 -101 66 -86
-16 23 -125 149 -207 216 -140 30 30 45 13 35 -39 -13 -74 -46 -112 -75 -87
-48 40 -80 -9 -47 -74 27 -56 27 -59 -7 -50 -20 5 -51 -5 -69 -23 -48 -48 -69
-39 -69 28 0 54 -6 60 -65 61 -54 2 -59 5 -25 19 47 20 39 23 -74 25 -65 1
-86 -7 -97 -37 -17 -46 13 -88 63 -88 51 0 48 -54 -4 -71 -29 -9 -54 0 -81 29
-21 23 -55 42 -76 42 -50 0 -67 54 -25 80 27 18 24 19 -16 7 -129 -37 -177 6
-101 88 48 51 52 68 14 53 -15 -6 -33 4 -40 21 -8 21 4 34 38 43 27 7 49 27
49 45 0 19 -7 24 -15 13 -8 -11 -58 -35 -110 -54 l-95 -34 33 50 c19 29 45 45
61 39 15 -6 23 -2 16 9 -7 11 4 21 24 22 20 0 25 6 12 11 -13 5 -42 0 -65 -13
-53 -28 -92 -7 -60 32 19 23 15 28 -24 30 -31 2 -36 6 -13 12 18 4 32 25 31
46 -2 20 -10 33 -19 27 -9 -5 -16 0 -16 12 0 11 -20 18 -44 16 -39 -5 -44 6
-50 105 -8 133 -42 226 -77 212 -34 -13 -26 67 12 121 42 57 73 71 113 49 20
-11 63 -26 96 -33 77 -17 21 -45 -95 -48 -41 0 -75 -6 -75 -12 0 -11 121 -147
187 -210 38 -37 193 -63 193 -32 0 10 14 6 31 -8 24 -20 39 -20 78 0 26 14 57
20 69 12 12 -7 32 -7 43 0 12 7 64 15 115 17 94 3 223 73 224 121 1 11 18 44
40 71 42 53 54 160 19 160 -12 0 -16 9 -9 20 29 47 92 -20 90 -96z m-132 -33
c-13 -33 -108 -100 -108 -76 0 8 -7 6 -15 -5 -19 -26 -201 -88 -265 -90 -211
-6 -314 4 -359 37 -113 82 -46 107 190 72 116 -18 146 -17 167 6 15 16 43 24
64 19 20 -6 47 2 59 17 12 15 34 22 48 16 15 -5 32 -2 37 7 20 32 194 29 182
-3z m272 -471 c0 -33 -8 -60 -19 -60 -28 0 -44 36 -22 49 10 7 14 25 8 42 -6
16 -1 29 11 29 12 0 22 -27 22 -60z m-47 -275 c-19 -63 -24 -67 -30 -29 -7 56
8 104 35 104 10 0 9 -31 -5 -75z m-1033 -14 c0 -16 -10 -35 -21 -42 -29 -18
-119 7 -119 33 0 12 17 15 40 8 23 -7 40 -4 40 9 0 11 14 21 30 21 17 0 30
-13 30 -29z m82 -106 c-20 -74 -71 -82 -75 -12 -2 32 3 43 12 28 12 -18 18
-16 28 7 21 55 50 35 35 -23z m-517 -46 c-18 -47 -38 -71 -46 -58 -7 12 -19
22 -26 21 -7 -1 -13 5 -13 13 0 8 11 15 25 15 14 0 37 20 51 45 40 70 44 53 9
-36z m1058 -25 c16 -24 -3 -94 -25 -94 -10 0 -18 9 -18 20 0 11 -10 18 -23 15
-12 -3 -24 13 -26 36 -4 42 66 60 92 23z"/>
<path d="M2504 1569 c-58 -16 -112 -28 -120 -26 -8 1 -23 -1 -34 -4 -11 -3
-78 -6 -150 -7 -146 -2 -173 -25 -88 -75 93 -55 468 -44 468 13 0 13 18 40 40
60 81 74 51 84 -116 39z"/>
<path d="M2169 1168 c-6 -21 -21 -55 -32 -75 -14 -26 -14 -44 1 -59 15 -15 31
1 53 55 22 53 25 83 11 97 -14 14 -24 9 -33 -18z"/>
<path d="M2687 1111 c6 -15 -2 -39 -18 -52 -33 -27 -39 -99 -9 -99 11 0 20 21
20 48 0 26 14 58 30 72 39 33 38 60 -2 60 -20 0 -28 -11 -21 -29z"/>
<path d="M960 2176 c1 -70 7 -96 18 -78 34 53 59 -319 61 -883 l1 -316 48 32
48 31 -10 454 c-8 339 -5 449 12 433 42 -40 87 -632 53 -688 -8 -12 4 -21 28
-21 42 0 57 48 21 70 -36 22 -21 53 25 49 181 -14 276 44 236 145 -10 25 -19
38 -20 29 -1 -22 -92 35 -164 102 -30 27 -63 43 -75 36 -15 -9 -22 35 -22 138
0 119 -6 151 -29 151 -42 0 -131 162 -139 252 -4 42 -17 80 -30 84 -12 4 -22
20 -22 34 0 15 -9 33 -20 40 -12 8 -20 -28 -20 -94z m420 -782 c0 -9 -34 -14
-75 -10 -71 6 -75 10 -81 83 l-7 78 81 -68 c45 -37 81 -74 82 -83z"/>
<path d="M1323 2154 c-13 -16 -14 -36 -2 -55 10 -16 19 -48 19 -72 0 -28 16
-47 49 -55 43 -11 46 -19 31 -72 -20 -70 -11 -78 21 -19 15 29 16 59 2 100
-17 48 -15 62 13 78 29 17 27 20 -16 21 -34 0 -42 6 -24 17 20 13 14 25 -23
49 -39 26 -54 27 -70 8z"/>
<path d="M4159 1969 c-256 -235 -326 -292 -399 -324 -38 -17 -59 -34 -46 -39
26 -9 137 43 156 74 7 11 59 42 116 70 57 27 135 78 174 112 38 34 91 77 117
96 34 25 45 49 40 92 l-7 57 -151 -138z"/>
<path d="M4122 1789 c-200 -155 -398 -245 -442 -202 -17 17 -19 15 -11 -8 8
-21 -15 -53 -70 -97 -95 -77 -134 -69 -42 9 35 29 63 60 63 69 0 32 -56 8
-128 -56 -40 -35 -81 -64 -91 -64 -14 0 -61 -103 -61 -133 0 -36 63 8 89 63
18 39 42 66 52 59 11 -6 7 -35 -11 -68 -32 -62 -5 -75 54 -26 15 13 61 25 101
28 40 3 68 12 63 20 -5 8 -27 11 -49 7 -22 -4 -35 0 -30 9 6 9 70 15 143 14
72 -2 136 3 141 12 5 8 28 15 50 15 23 0 37 11 32 25 -8 25 69 75 115 75 37 0
51 51 23 80 -17 19 -11 19 27 -1 43 -22 47 -21 27 3 -20 24 -10 27 65 21 94
-7 139 93 56 125 -48 18 -51 15 -29 -26 16 -29 13 -41 -11 -50 -48 -18 -51
-15 -28 28 12 22 14 40 6 40 -9 0 10 21 41 46 37 29 54 60 50 87 -6 36 -30 24
-195 -104z"/>
<path d="M3107 1710 c-18 -46 28 -90 54 -50 10 17 16 38 12 49 -10 34 -53 35
-66 1z"/>
<path d="M8 1320 c0 -181 3 -256 7 -165 4 91 4 239 0 330 -4 91 -7 17 -7 -165z"/>
<path d="M3312 1257 c9 -14 17 -126 18 -248 2 -122 10 -233 19 -248 10 -15 21
-69 25 -119 4 -51 16 -95 27 -99 31 -10 22 -43 -12 -43 -17 0 -26 -9 -19 -20
7 -12 22 -15 33 -8 11 6 25 -8 31 -32 9 -33 16 -37 28 -17 10 15 12 45 5 67
-12 38 -11 39 27 5 22 -19 47 -28 56 -20 9 8 9 2 0 -13 -13 -22 -8 -26 19 -15
26 10 32 6 24 -17 -8 -21 1 -30 33 -30 36 1 38 4 14 20 -21 14 0 19 75 20 82
0 105 -7 105 -31 0 -22 -17 -30 -55 -27 -122 9 -181 -4 -237 -54 -43 -39 -47
-46 -14 -30 24 12 50 32 57 44 8 13 24 5 42 -21 32 -45 77 -57 62 -16 -6 14 2
37 18 51 15 15 27 17 27 5 0 -12 16 -21 35 -21 110 -1 148 -65 153 -255 l2
-85 136 0 c145 0 191 22 184 91 -11 100 -105 232 -125 174 -12 -35 -58 -31
-73 6 -13 36 19 109 49 109 35 0 20 37 -21 50 -22 7 -40 25 -40 40 0 15 -14
41 -31 58 -17 17 -30 35 -30 41 3 46 -4 54 -39 45 -30 -8 -40 0 -40 29 0 26
-9 34 -25 25 -20 -11 -20 -8 0 13 34 37 32 80 -4 67 -21 -9 -27 0 -21 30 10
52 -11 54 -54 4 -23 -28 -26 -44 -10 -60 12 -12 15 -22 7 -22 -31 0 -130 60
-140 85 -8 19 -10 20 -11 0 -1 -14 -16 -25 -33 -25 -17 0 -26 8 -20 18 6 11
-16 39 -50 63 -34 24 -56 48 -50 54 5 6 -5 24 -24 39 -31 25 -28 27 30 15 41
-8 65 -4 65 9 0 12 -19 22 -41 22 -23 0 -55 14 -72 30 -27 27 -26 30 3 30 18
0 27 8 21 18 -12 20 13 18 84 -6 25 -8 41 -23 35 -32 -6 -10 0 -24 13 -32 14
-8 18 -6 10 7 -7 11 0 26 15 32 17 6 32 -6 38 -28 6 -22 2 -40 -8 -41 -10 -2
-26 -4 -36 -5 -52 -8 -37 -32 26 -44 40 -8 86 -33 102 -56 28 -39 41 -25 32
32 -1 8 7 15 18 15 11 0 20 -15 20 -32 0 -27 5 -28 30 -8 24 20 30 20 30 0 0
-13 13 -19 29 -13 17 6 36 1 43 -11 8 -13 5 -17 -8 -9 -11 8 -27 5 -33 -6 -7
-10 6 -28 27 -40 28 -15 44 -15 54 2 9 15 24 4 41 -29 15 -28 45 -57 67 -64
43 -14 50 -43 22 -88 -23 -36 -6 -82 30 -82 23 0 84 -90 91 -135 6 -38 45
-105 61 -105 10 0 13 -8 7 -19 -6 -10 -3 -24 9 -31 25 -15 26 19 1 65 -31 59
-48 114 -43 143 3 15 -4 33 -15 40 -12 7 -29 51 -40 99 l-19 85 47 -31 c203
-133 53 122 -171 291 -49 37 -99 77 -110 90 -86 96 -318 208 -430 208 -29 0
-61 8 -71 18 -35 33 -156 50 -137 19z m202 -560 c41 -39 46 -40 46 -9 0 42 76
31 220 -31 77 -34 85 -43 58 -63 -18 -13 -33 -33 -33 -43 -1 -11 -13 -24 -27
-28 -16 -6 -20 6 -13 32 7 29 -4 48 -37 66 -63 34 -88 7 -31 -33 44 -31 43
-68 -2 -60 -63 11 -201 99 -210 134 -5 21 -18 38 -27 38 -10 0 -18 9 -18 20 0
31 23 24 74 -23z m381 -207 c0 -27 -11 -50 -23 -50 -19 0 -29 82 -15 116 10
24 38 -25 38 -66z m264 -295 c69 -108 39 -160 -97 -168 -64 -4 -102 2 -102 15
0 12 14 17 30 11 34 -13 39 8 10 43 -15 17 -13 19 4 4 38 -32 79 -23 75 15 -4
43 21 125 39 125 7 0 25 -20 41 -45z"/>
<path d="M4250 1240 c7 -11 -6 -20 -28 -20 -48 0 -72 -32 -39 -52 14 -9 18 -6
9 9 -8 13 -5 23 7 23 28 0 27 -36 -4 -68 -20 -22 -29 -21 -48 5 -20 27 -23 23
-20 -27 3 -74 30 -96 69 -56 17 16 51 25 77 21 42 -8 47 -2 47 59 0 49 -7 64
-25 54 -20 -11 -20 -8 0 13 36 39 31 59 -16 59 -23 0 -36 -9 -29 -20z"/>
<path d="M1076 832 c-49 -61 -52 -73 -32 -151 13 -51 27 -75 37 -60 10 17 19
11 28 -18 8 -24 9 -51 2 -61 -6 -10 1 -47 16 -83 l28 -65 18 56 c19 55 -1 334
-29 410 -13 36 -19 34 -68 -28z"/>
<path d="M0 667 c0 -53 9 -110 20 -127 14 -21 19 0 20 75 0 58 1 112 2 120 0
7 -9 17 -20 21 -14 5 -22 -29 -22 -89z"/>
<path d="M160 541 c0 -91 7 -122 25 -116 39 13 43 183 6 214 -27 23 -31 12
-31 -98z"/>
<path d="M2626 400 c-6 -22 -23 -40 -38 -40 -16 0 -27 -19 -26 -45 0 -25 6
-34 11 -20 6 14 28 25 49 25 21 0 39 7 39 15 1 8 6 35 10 60 11 56 -31 60 -45
5z"/>
<path d="M3045 401 c10 -36 -7 -53 -55 -58 -11 -1 -24 -30 -30 -65 -8 -49 -22
-66 -58 -71 -70 -11 -112 -48 -78 -70 21 -13 21 -24 0 -58 -22 -36 -22 -40 0
-27 20 12 20 8 -1 -18 -25 -30 -23 -34 12 -34 54 0 105 115 63 142 -20 13 -14
17 26 18 29 0 59 9 66 20 7 11 2 20 -11 20 -18 0 -18 7 1 30 13 16 32 25 40
20 9 -6 11 9 5 33 -9 34 -4 41 21 31 18 -7 39 -2 46 10 8 13 5 17 -8 9 -13 -9
-20 2 -19 27 2 22 11 40 20 40 10 0 12 9 5 20 -22 35 -55 21 -45 -19z"/>
<path d="M3700 272 c0 -27 -54 -62 -86 -55 -10 2 -12 -4 -6 -14 26 -42 99 -13
106 42 4 30 3 55 -3 55 -6 0 -11 -13 -11 -28z"/>
<path d="M3198 172 c-2 -29 -4 -65 -5 -82 -3 -32 9 -36 57 -17 17 6 23 21 15
34 -8 13 -15 40 -15 61 0 60 -50 63 -52 4z"/>
<path d="M3685 167 c-34 -14 -32 -67 3 -67 33 0 77 49 58 67 -14 15 -24 14
-61 0z"/>
<path d="M1453 92 c-21 -57 -15 -92 17 -92 32 0 36 27 12 89 -14 35 -16 36
-29 3z"/>
<path d="M288 37 c-15 -25 38 -41 115 -33 l67 6 -86 22 c-47 13 -90 15 -96 5z"/>
</g>
</svg>
